<svg xmlns="http://www.w3.org/2000/svg" xmlns:xlink="http://www.w3.org/1999/xlink" width="500" zoomAndPan="magnify" viewBox="0 0 375 374.999991" height="500" preserveAspectRatio="xMidYMid meet" version="1.0"><defs><g/></defs><g fill="#000000" fill-opacity="1"><g transform="translate(88.882352, 348.322349)"><g><path d="M 5.59375 -271.78125 L 108.859375 -271.78125 L 108.859375 -267.3125 C 96.429688 -267.3125 88.039062 -266.191406 83.6875 -263.953125 C 79.34375 -261.710938 79.160156 -256.367188 83.140625 -247.921875 L 178.203125 -51.453125 L 246.0625 -244.9375 C 248.789062 -252.894531 248.785156 -258.550781 246.046875 -261.90625 C 243.316406 -265.257812 236.113281 -266.9375 224.4375 -266.9375 L 224.4375 -271.78125 L 285.203125 -271.78125 L 285.203125 -266.9375 C 274.765625 -266.9375 267.179688 -265.441406 262.453125 -262.453125 C 257.734375 -259.472656 253.882812 -253.507812 250.90625 -244.5625 L 165.15625 0 L 159.5625 4.46875 L 39.140625 -244.9375 C 35.171875 -253.632812 31.132812 -259.472656 27.03125 -262.453125 C 22.925781 -265.441406 15.78125 -266.9375 5.59375 -266.9375 Z M 5.59375 -271.78125 "/></g></g></g><path stroke-linecap="butt" transform="matrix(0.75, 0, 0, 0.75, -28.942534, -65.285929)" fill="none" stroke-linejoin="miter" d="M 40.876506 119.480204 L 182.475474 119.480204 L 182.475474 125.58958 C 165.423389 125.58958 153.902555 127.131246 147.91818 130.209372 C 142.01193 133.287497 141.76193 140.605206 147.16818 152.162498 L 277.53798 421.511474 L 370.480695 156.28229 C 374.225486 145.386456 374.225486 137.65208 370.480695 133.079163 C 366.735903 128.417705 356.881735 126.08958 340.912984 126.08958 L 340.912984 119.480204 L 424.126531 119.480204 L 424.126531 126.08958 C 409.819239 126.08958 399.423405 128.172913 392.939029 132.329163 C 386.532779 136.40208 381.293195 144.553123 377.21507 156.78229 L 259.699437 492.001062 L 251.965062 498.110437 L 86.912968 156.28229 C 81.506717 144.386456 75.975467 136.40208 70.319217 132.329163 C 64.662966 128.172913 54.850465 126.08958 40.876506 126.08958 Z M 40.876506 119.480204 " stroke="#ffffff" stroke-width="52.377499" stroke-opacity="1" stroke-miterlimit="4"/><g fill="#000000" fill-opacity="1"><g transform="translate(-3.993317, 303.714047)"><g><path d="M 5.75 -279.390625 L 111.90625 -279.390625 L 111.90625 -274.796875 C 99.132812 -274.796875 90.507812 -273.644531 86.03125 -271.34375 C 81.5625 -269.039062 81.375 -263.546875 85.46875 -254.859375 L 183.1875 -52.890625 L 252.9375 -251.796875 C 255.75 -259.972656 255.75 -265.785156 252.9375 -269.234375 C 250.132812 -272.679688 242.726562 -274.40625 230.71875 -274.40625 L 230.71875 -279.390625 L 293.1875 -279.390625 L 293.1875 -274.40625 C 282.457031 -274.40625 274.664062 -272.867188 269.8125 -269.796875 C 264.957031 -266.734375 260.992188 -260.601562 257.921875 -251.40625 L 169.78125 0 L 164.03125 4.59375 L 40.234375 -251.796875 C 36.148438 -260.734375 32 -266.734375 27.78125 -269.796875 C 23.570312 -272.867188 16.226562 -274.40625 5.75 -274.40625 Z M 5.75 -279.390625 "/></g></g></g></svg>