<svg xmlns="http://www.w3.org/2000/svg" xmlns:xlink="http://www.w3.org/1999/xlink" width="500" zoomAndPan="magnify" viewBox="0 0 375 374.999991" height="500" preserveAspectRatio="xMidYMid meet" version="1.0"><defs><g/></defs><g fill="#e4c19d" fill-opacity="1"><g transform="translate(69.763985, 392.455766)"><g><path d="M 293.9375 -329.953125 L 293.9375 -322.40625 C 284.195312 -320.71875 276.894531 -317.609375 272.03125 -313.078125 C 264.800781 -306.523438 258.414062 -296.453125 252.875 -282.859375 L 157.671875 -50.375 L 150.125 -50.375 L 47.859375 -285.875 C 42.648438 -297.96875 38.957031 -305.359375 36.78125 -308.046875 C 33.414062 -312.242188 29.296875 -315.515625 24.421875 -317.859375 C 19.554688 -320.210938 12.925781 -321.726562 4.53125 -322.40625 L 4.53125 -329.953125 L 116.109375 -329.953125 L 116.109375 -322.40625 C 103.515625 -321.226562 95.328125 -319.082031 91.546875 -315.96875 C 87.773438 -312.863281 85.890625 -308.878906 85.890625 -304.015625 C 85.890625 -297.296875 88.992188 -286.882812 95.203125 -272.78125 L 164.71875 -112.59375 L 229.203125 -270.765625 C 235.585938 -286.210938 238.78125 -296.957031 238.78125 -303 C 238.78125 -307.03125 236.804688 -310.804688 232.859375 -314.328125 C 228.910156 -317.859375 222.320312 -320.378906 213.09375 -321.890625 C 212.414062 -322.054688 211.238281 -322.226562 209.5625 -322.40625 L 209.5625 -329.953125 Z M 293.9375 -329.953125 "/></g></g></g><path stroke-linecap="butt" transform="matrix(8.26477, 0, 0, 8.26477, 0.0000045, -104.229807)" fill="none" stroke-linejoin="miter" d="M 35.557551 15.080401 L 35.557551 15.992121 C 34.385879 16.191575 33.504881 16.569213 32.914555 17.124564 C 32.037811 17.914815 31.265519 19.134223 30.597208 20.783259 L 19.074278 48.906677 L 18.16303 48.906677 L 5.794077 20.405621 C 5.160268 18.947531 4.713152 18.053299 4.452728 17.723869 C 4.044841 17.220037 3.545735 16.825383 2.955409 16.538964 C 2.365083 16.252545 1.562543 16.070107 0.546842 15.992121 L 0.546842 15.080401 L 14.048711 15.080401 L 14.048711 15.992121 C 12.521143 16.131077 11.527184 16.391501 11.066834 16.773393 C 10.615464 17.146305 10.390015 17.628396 10.390015 18.218249 C 10.390015 19.034496 10.767653 20.293133 11.52293 21.99416 L 19.933535 41.380852 L 27.732545 22.241822 C 28.505309 20.375372 28.891455 19.073253 28.891455 18.335464 C 28.891455 17.849591 28.652773 17.393968 28.175408 16.968593 C 27.698042 16.543218 26.899283 16.239311 25.779602 16.057346 C 25.701617 16.030878 25.558407 16.009609 25.349974 15.992121 L 25.349974 15.080401 Z M 35.557551 15.080401 " stroke="#07363c" stroke-width="2.599998" stroke-opacity="1" stroke-miterlimit="4"/><g fill="#e4c19d" fill-opacity="1"><g transform="translate(0.0000045, 350.332571)"><g><path d="M 293.921875 -329.9375 L 293.921875 -322.390625 C 284.179688 -320.710938 276.878906 -317.601562 272.015625 -313.0625 C 264.796875 -306.519531 258.414062 -296.445312 252.875 -282.84375 L 157.671875 -50.375 L 150.109375 -50.375 L 47.859375 -285.875 C 42.648438 -297.957031 38.953125 -305.34375 36.765625 -308.03125 C 33.410156 -312.226562 29.296875 -315.5 24.421875 -317.84375 C 19.554688 -320.195312 12.925781 -321.710938 4.53125 -322.390625 L 4.53125 -329.9375 L 116.109375 -329.9375 L 116.109375 -322.390625 C 103.515625 -321.210938 95.328125 -319.070312 91.546875 -315.96875 C 87.773438 -312.863281 85.890625 -308.875 85.890625 -304 C 85.890625 -297.28125 88.992188 -286.867188 95.203125 -272.765625 L 164.71875 -112.578125 L 229.203125 -270.75 C 235.578125 -286.195312 238.765625 -296.945312 238.765625 -303 C 238.765625 -307.03125 236.789062 -310.804688 232.84375 -314.328125 C 228.90625 -317.859375 222.316406 -320.378906 213.078125 -321.890625 C 212.410156 -322.054688 211.234375 -322.222656 209.546875 -322.390625 L 209.546875 -329.9375 Z M 293.921875 -329.9375 "/></g></g></g></svg>