<svg xmlns="http://www.w3.org/2000/svg" xmlns:xlink="http://www.w3.org/1999/xlink" width="500" zoomAndPan="magnify" viewBox="0 0 375 374.999991" height="500" preserveAspectRatio="xMidYMid meet" version="1.0"><defs><g/></defs><g fill="#000000" fill-opacity="1"><g transform="translate(4.671301, 336.627153)"><g><path d="M 256.9375 -322.3125 C 270.65625 -322.3125 282.085938 -322.769531 291.234375 -323.6875 L 291.234375 -314.546875 C 275.992188 -310.890625 263.953125 -297.628906 255.109375 -274.765625 L 147.671875 2.28125 L 140.359375 2.28125 L 28.796875 -285.28125 C 21.484375 -304.175781 10.96875 -313.929688 -2.75 -314.546875 L -2.75 -323.6875 C 9.445312 -322.769531 25.753906 -322.3125 46.171875 -322.3125 C 72.390625 -322.3125 91.898438 -322.769531 104.703125 -323.6875 L 104.703125 -314.546875 C 93.117188 -313.929688 84.8125 -312.476562 79.78125 -310.1875 C 74.75 -307.90625 72.234375 -303.71875 72.234375 -297.625 C 72.234375 -292.445312 74.0625 -285.285156 77.71875 -276.140625 L 160.46875 -56.234375 L 235 -249.625 C 241.09375 -266.082031 244.140625 -278.578125 244.140625 -287.109375 C 244.140625 -296.554688 240.863281 -303.414062 234.3125 -307.6875 C 227.757812 -311.957031 217.773438 -314.242188 204.359375 -314.546875 L 204.359375 -323.6875 C 221.734375 -322.769531 239.257812 -322.3125 256.9375 -322.3125 Z M 256.9375 -322.3125 "/></g></g></g><g fill="#ffffff" fill-opacity="1"><g transform="translate(122.936438, 363.825303)"><g><path d="M 222.265625 -278.8125 C 234.128906 -278.8125 244.015625 -279.207031 251.921875 -280 L 251.921875 -272.09375 C 238.742188 -268.925781 228.332031 -257.457031 220.6875 -237.6875 L 127.734375 1.984375 L 121.40625 1.984375 L 24.921875 -246.78125 C 18.585938 -263.125 9.488281 -271.5625 -2.375 -272.09375 L -2.375 -280 C 8.175781 -279.207031 22.28125 -278.8125 39.9375 -278.8125 C 62.613281 -278.8125 79.488281 -279.207031 90.5625 -280 L 90.5625 -272.09375 C 80.539062 -271.5625 73.351562 -270.304688 69 -268.328125 C 64.65625 -266.359375 62.484375 -262.734375 62.484375 -257.453125 C 62.484375 -252.972656 64.066406 -246.78125 67.234375 -238.875 L 138.8125 -48.640625 L 203.28125 -215.9375 C 208.550781 -230.175781 211.1875 -240.984375 211.1875 -248.359375 C 211.1875 -256.535156 208.351562 -262.46875 202.6875 -266.15625 C 197.019531 -269.851562 188.382812 -271.832031 176.78125 -272.09375 L 176.78125 -280 C 191.8125 -279.207031 206.972656 -278.8125 222.265625 -278.8125 Z M 222.265625 -278.8125 "/></g></g></g><g fill="#000000" fill-opacity="1"><g transform="translate(110.607392, 362.96317)"><g><path d="M 222.265625 -278.8125 C 234.128906 -278.8125 244.015625 -279.207031 251.921875 -280 L 251.921875 -272.09375 C 238.742188 -268.925781 228.332031 -257.457031 220.6875 -237.6875 L 127.734375 1.984375 L 121.40625 1.984375 L 24.921875 -246.78125 C 18.585938 -263.125 9.488281 -271.5625 -2.375 -272.09375 L -2.375 -280 C 8.175781 -279.207031 22.28125 -278.8125 39.9375 -278.8125 C 62.613281 -278.8125 79.488281 -279.207031 90.5625 -280 L 90.5625 -272.09375 C 80.539062 -271.5625 73.351562 -270.304688 69 -268.328125 C 64.65625 -266.359375 62.484375 -262.734375 62.484375 -257.453125 C 62.484375 -252.972656 64.066406 -246.78125 67.234375 -238.875 L 138.8125 -48.640625 L 203.28125 -215.9375 C 208.550781 -230.175781 211.1875 -240.984375 211.1875 -248.359375 C 211.1875 -256.535156 208.351562 -262.46875 202.6875 -266.15625 C 197.019531 -269.851562 188.382812 -271.832031 176.78125 -272.09375 L 176.78125 -280 C 191.8125 -279.207031 206.972656 -278.8125 222.265625 -278.8125 Z M 222.265625 -278.8125 "/></g></g></g></svg>