<svg xmlns="http://www.w3.org/2000/svg" xmlns:xlink="http://www.w3.org/1999/xlink" width="500" zoomAndPan="magnify" viewBox="0 0 375 374.999991" height="500" preserveAspectRatio="xMidYMid meet" version="1.0"><defs><g/></defs><g fill="#000000" fill-opacity="1"><g transform="translate(132.116624, 252.866623)"><g><path d="M 2.890625 -140.484375 L 56.28125 -140.484375 L 56.28125 -138.171875 C 49.851562 -138.171875 45.515625 -137.59375 43.265625 -136.4375 C 41.015625 -135.28125 40.914062 -132.519531 42.96875 -128.15625 L 92.125 -26.59375 L 127.1875 -126.609375 C 128.601562 -130.722656 128.601562 -133.644531 127.1875 -135.375 C 125.78125 -137.113281 122.054688 -137.984375 116.015625 -137.984375 L 116.015625 -140.484375 L 147.4375 -140.484375 L 147.4375 -137.984375 C 142.03125 -137.984375 138.109375 -137.210938 135.671875 -135.671875 C 133.234375 -134.128906 131.242188 -131.046875 129.703125 -126.421875 L 85.375 0 L 82.484375 2.3125 L 20.234375 -126.609375 C 18.179688 -131.109375 16.09375 -134.128906 13.96875 -135.671875 C 11.851562 -137.210938 8.160156 -137.984375 2.890625 -137.984375 Z M 2.890625 -140.484375 "/></g></g></g><path stroke-linecap="butt" transform="matrix(1.220487, 0, 0, 1.220487, 70.484172, 40.613745)" fill="none" stroke-linejoin="miter" d="M 13.372136 36.646114 L 58.359308 36.646114 L 58.359308 38.588858 C 52.940748 38.588858 49.2825 39.078545 47.378162 40.054718 C 45.50263 41.034092 45.422616 43.357703 47.14132 47.031955 L 88.55986 132.605519 L 118.088293 48.337786 C 119.278904 44.877973 119.278904 42.419937 118.088293 40.96688 C 116.900883 39.488218 113.770728 38.745686 108.694629 38.745686 L 108.694629 36.646114 L 135.134514 36.646114 L 135.134514 38.745686 C 130.589709 38.745686 127.286723 39.408203 125.225558 40.730038 C 123.189997 42.023067 121.525702 44.612326 120.229473 48.497814 L 82.891656 154.999888 L 80.436821 156.942632 L 27.995528 48.337786 C 26.280024 44.561117 24.522912 42.023067 22.724193 40.730038 C 20.928675 39.408203 17.811323 38.745686 13.372136 38.745686 Z M 13.372136 36.646114 " stroke="#ffffff" stroke-width="16.641142" stroke-opacity="1" stroke-miterlimit="4"/><g fill="#000000" fill-opacity="1"><g transform="translate(83.852316, 229.789199)"><g><path d="M 2.96875 -144.4375 L 57.859375 -144.4375 L 57.859375 -142.0625 C 51.253906 -142.0625 46.796875 -141.46875 44.484375 -140.28125 C 42.171875 -139.09375 42.070312 -136.253906 44.1875 -131.765625 L 94.71875 -27.34375 L 130.765625 -130.171875 C 132.222656 -134.398438 132.222656 -137.40625 130.765625 -139.1875 C 129.316406 -140.976562 125.488281 -141.875 119.28125 -141.875 L 119.28125 -144.4375 L 151.578125 -144.4375 L 151.578125 -141.875 C 146.023438 -141.875 141.992188 -141.078125 139.484375 -139.484375 C 136.972656 -137.898438 134.925781 -134.734375 133.34375 -129.984375 L 87.78125 0 L 84.796875 2.375 L 20.8125 -130.171875 C 18.695312 -134.796875 16.546875 -137.898438 14.359375 -139.484375 C 12.179688 -141.078125 8.382812 -141.875 2.96875 -141.875 Z M 2.96875 -144.4375 "/></g></g></g></svg>